<?xml version="1.0" encoding="UTF-8" standalone="no"?>
<!-- Created with Inkscape (http://www.inkscape.org/) -->

<svg
   xmlns:dc="http://purl.org/dc/elements/1.1/"
   xmlns:cc="http://creativecommons.org/ns#"
   xmlns:rdf="http://www.w3.org/1999/02/22-rdf-syntax-ns#"
   xmlns:svg="http://www.w3.org/2000/svg"
   xmlns="http://www.w3.org/2000/svg"
   xmlns:sodipodi="http://sodipodi.sourceforge.net/DTD/sodipodi-0.dtd"
   xmlns:inkscape="http://www.inkscape.org/namespaces/inkscape"
   width="210mm"
   height="297mm"
   viewBox="0 0 210 297"
   version="1.1"
   id="svg8"
   inkscape:version="0.92.2 (5c3e80d, 2017-08-06)"
   sodipodi:docname="Castle.svg">
  <defs
     id="defs2">
    <inkscape:path-effect
       effect="bspline"
       id="path-effect4637"
       is_visible="true"
       weight="33.333333"
       steps="2"
       helper_size="0"
       apply_no_weight="true"
       apply_with_weight="true"
       only_selected="false" />
    <inkscape:path-effect
       effect="bspline"
       id="path-effect4633"
       is_visible="true"
       weight="33.333333"
       steps="2"
       helper_size="0"
       apply_no_weight="true"
       apply_with_weight="true"
       only_selected="false" />
    <inkscape:path-effect
       effect="bspline"
       id="path-effect4629"
       is_visible="true"
       weight="33.333333"
       steps="2"
       helper_size="0"
       apply_no_weight="true"
       apply_with_weight="true"
       only_selected="false" />
    <inkscape:path-effect
       effect="bspline"
       id="path-effect4625"
       is_visible="true"
       weight="33.333333"
       steps="2"
       helper_size="0"
       apply_no_weight="true"
       apply_with_weight="true"
       only_selected="false" />
    <inkscape:path-effect
       effect="bspline"
       id="path-effect4595"
       is_visible="true"
       weight="33.333333"
       steps="2"
       helper_size="0"
       apply_no_weight="true"
       apply_with_weight="true"
       only_selected="false" />
    <inkscape:path-effect
       effect="bspline"
       id="path-effect4591"
       is_visible="true"
       weight="33.333333"
       steps="2"
       helper_size="0"
       apply_no_weight="true"
       apply_with_weight="true"
       only_selected="false" />
    <inkscape:path-effect
       effect="bspline"
       id="path-effect4587"
       is_visible="true"
       weight="33.333333"
       steps="2"
       helper_size="0"
       apply_no_weight="true"
       apply_with_weight="true"
       only_selected="false" />
    <inkscape:path-effect
       effect="bspline"
       id="path-effect4583"
       is_visible="true"
       weight="33.333333"
       steps="2"
       helper_size="0"
       apply_no_weight="true"
       apply_with_weight="true"
       only_selected="false" />
    <inkscape:path-effect
       effect="bspline"
       id="path-effect4587-8"
       is_visible="true"
       weight="33.333333"
       steps="2"
       helper_size="0"
       apply_no_weight="true"
       apply_with_weight="true"
       only_selected="false" />
    <inkscape:path-effect
       effect="bspline"
       id="path-effect4587-2"
       is_visible="true"
       weight="33.333333"
       steps="2"
       helper_size="0"
       apply_no_weight="true"
       apply_with_weight="true"
       only_selected="false" />
  </defs>
  <sodipodi:namedview
     id="base"
     pagecolor="#ffffff"
     bordercolor="#666666"
     borderopacity="1.0"
     inkscape:pageopacity="0.0"
     inkscape:pageshadow="2"
     inkscape:zoom="0.7"
     inkscape:cx="224.88177"
     inkscape:cy="461.80317"
     inkscape:document-units="mm"
     inkscape:current-layer="layer1"
     showgrid="false"
     inkscape:measure-start="261.63,518.713"
     inkscape:measure-end="408.102,432.85"
     inkscape:window-width="1920"
     inkscape:window-height="1057"
     inkscape:window-x="-8"
     inkscape:window-y="-8"
     inkscape:window-maximized="1" />
  <metadata
     id="metadata5">
    <rdf:RDF>
      <cc:Work
         rdf:about="">
        <dc:format>image/svg+xml</dc:format>
        <dc:type
           rdf:resource="http://purl.org/dc/dcmitype/StillImage" />
        <dc:title></dc:title>
      </cc:Work>
    </rdf:RDF>
  </metadata>
  <g
     inkscape:label="Layer 1"
     inkscape:groupmode="layer"
     id="layer1">
    <path
       style="opacity:1;fill:none;stroke:#000000;stroke-width:1;stroke-linecap:butt;stroke-linejoin:miter;stroke-miterlimit:4;stroke-dasharray:none;stroke-opacity:1"
       d="m 126.38157,121.50713 v 52.91666"
       id="path3699"
       inkscape:connector-curvature="0"
       sodipodi:nodetypes="cc" />
    <path
       style="opacity:1;fill:none;stroke:#000000;stroke-width:1;stroke-linecap:butt;stroke-linejoin:miter;stroke-miterlimit:4;stroke-dasharray:none;stroke-opacity:1"
       d="m 76.208959,122.1753 v 52.91666"
       id="path3699-8"
       inkscape:connector-curvature="0"
       sodipodi:nodetypes="cc" />
    <path
       style="fill:none;stroke:#000000;stroke-width:1;stroke-linecap:butt;stroke-linejoin:miter;stroke-miterlimit:4;stroke-dasharray:none;stroke-opacity:1"
       d="m 76.208957,122.1753 h 10.787274 v 10.18667 h 10.022608 v -10.15624"
       id="path4525"
       inkscape:connector-curvature="0" />
    <path
       style="fill:none;stroke:#000000;stroke-width:1;stroke-linecap:butt;stroke-linejoin:miter;stroke-miterlimit:4;stroke-dasharray:none;stroke-opacity:1"
       d="m 97.018838,122.20573 h 9.888972 v 10.28987"
       id="path4529"
       inkscape:connector-curvature="0" />
    <path
       style="fill:none;stroke:#000000;stroke-width:1;stroke-linecap:butt;stroke-linejoin:miter;stroke-miterlimit:4;stroke-dasharray:none;stroke-opacity:1"
       d="m 106.90781,132.4956 h 10.02261 v -10.95805 h 9.35443"
       id="path4531"
       inkscape:connector-curvature="0" />
    <path
       style="fill:none;stroke:#000000;stroke-width:1;stroke-linecap:butt;stroke-linejoin:round;stroke-miterlimit:4;stroke-dasharray:none;stroke-opacity:1;paint-order:normal"
       d="m 76.208957,175.09196 24.784983,13.98938"
       id="path4533"
       inkscape:connector-curvature="0"
       sodipodi:nodetypes="cc" />
    <path
       style="fill:none;stroke:#000000;stroke-width:1;stroke-linecap:butt;stroke-linejoin:miter;stroke-miterlimit:4;stroke-dasharray:none;stroke-opacity:1"
       d="m 126.38157,174.42379 -25.38763,14.65755"
       id="path4535"
       inkscape:connector-curvature="0" />
    <path
       style="fill:none;stroke:#000000;stroke-width:1;stroke-linecap:butt;stroke-linejoin:miter;stroke-miterlimit:4;stroke-dasharray:none;stroke-opacity:1"
       d="m 107.04145,145.72544 v 15.50164"
       id="path4539"
       inkscape:connector-curvature="0" />
    <path
       style="fill:none;stroke:#000000;stroke-width:1;stroke-linecap:butt;stroke-linejoin:miter;stroke-miterlimit:4;stroke-dasharray:none;stroke-opacity:1"
       d="M 96.617934,161.22708 H 107.04145"
       id="path4537-7"
       inkscape:connector-curvature="0"
       sodipodi:nodetypes="cc" />
    <path
       style="fill:none;stroke:#000000;stroke-width:1;stroke-linecap:butt;stroke-linejoin:miter;stroke-miterlimit:4;stroke-dasharray:none;stroke-opacity:1"
       d="m 96.617934,145.72544 v 15.50164"
       id="path4577"
       inkscape:connector-curvature="0" />
    <path
       style="fill:none;stroke:#000000;stroke-width:1;stroke-linecap:butt;stroke-linejoin:miter;stroke-miterlimit:4;stroke-dasharray:none;stroke-opacity:1"
       d="m 96.617934,145.72544 c 1.737516,-1.73752 3.430216,-3.43022 5.200606,-3.37455 1.77039,0.0557 3.59702,1.88229 4.47675,2.73974 0.87973,0.85744 0.81293,0.7461 0.74616,0.63481"
       id="path4581"
       inkscape:connector-curvature="0"
       inkscape:path-effect="#path-effect4583"
       inkscape:original-d="m 96.617934,145.72544 c 1.737513,-1.73752 3.430216,-3.43022 5.144936,-5.14494 1.82632,1.8258 3.65295,3.65242 5.47903,5.47903 -0.0666,-0.11163 -0.13337,-0.22299 -0.20045,-0.33409" />
    <path
       style="fill:none;stroke:#000000;stroke-width:0.26458332px;stroke-linecap:butt;stroke-linejoin:miter;stroke-opacity:1"
       d="m 76.171815,159.89073 c 12.411054,7.16552 24.822025,14.331 37.232915,21.49643"
       id="path4585"
       inkscape:connector-curvature="0"
       inkscape:path-effect="#path-effect4587"
       inkscape:original-d="m 76.171815,159.89073 c 12.411236,7.16521 24.822205,14.33069 37.232915,21.49643" />
    <path
       style="fill:none;stroke:#000000;stroke-width:0.26458332px;stroke-linecap:butt;stroke-linejoin:miter;stroke-opacity:1"
       d="m 75.904546,145.05727 c 6.928525,3.86655 13.856953,7.73305 20.785301,11.5995"
       id="path4589"
       inkscape:connector-curvature="0"
       inkscape:path-effect="#path-effect4591"
       inkscape:original-d="m 75.904546,145.05727 c 6.928698,3.86624 13.85713,7.73273 20.785301,11.5995"
       sodipodi:nodetypes="cc" />
    <path
       style="fill:none;stroke:#000000;stroke-width:0.26458332px;stroke-linecap:butt;stroke-linejoin:miter;stroke-opacity:1"
       d="m 107.04145,161.22708 c 6.26791,3.61878 12.53574,7.23751 18.80348,10.85619"
       id="path4593"
       inkscape:connector-curvature="0"
       inkscape:path-effect="#path-effect4595"
       inkscape:original-d="m 107.04145,161.22708 c 6.26809,3.61847 12.53592,7.2372 18.80348,10.85619" />
    <path
       style="fill:none;stroke:#000000;stroke-width:0.26458332px;stroke-linecap:butt;stroke-linejoin:miter;stroke-opacity:1"
       d="m 76.634096,130.82784 c 7.2135,4.14964 14.427243,8.29943 21.640467,12.44891"
       id="path4585-4"
       inkscape:connector-curvature="0"
       inkscape:path-effect="#path-effect4587-8"
       inkscape:original-d="m 76.634096,130.82784 c 7.21368,4.14933 14.427424,8.29911 21.640467,12.44891"
       sodipodi:nodetypes="cc" />
    <path
       style="fill:none;stroke:#000000;stroke-width:0.26458332px;stroke-linecap:butt;stroke-linejoin:miter;stroke-opacity:1"
       d="m 107.32493,147.94605 c 6.1902,3.65349 12.38031,7.30694 18.57035,10.96034"
       id="path4585-8"
       inkscape:connector-curvature="0"
       inkscape:path-effect="#path-effect4587-2"
       inkscape:original-d="m 107.32493,147.94605 c 6.19038,3.65318 12.38049,7.30663 18.57035,10.96034"
       sodipodi:nodetypes="cc" />
    <path
       style="fill:none;stroke:#000000;stroke-width:0.26458332px;stroke-linecap:butt;stroke-linejoin:miter;stroke-opacity:1"
       d="m 96.812847,128.54954 c 9.866563,5.69646 19.733043,11.39287 29.599443,17.08924"
       id="path4623"
       inkscape:connector-curvature="0"
       inkscape:path-effect="#path-effect4625"
       inkscape:original-d="m 96.812847,128.54954 c 9.866743,5.69614 19.733223,11.39256 29.599443,17.08924" />
    <path
       style="fill:none;stroke:#000000;stroke-width:0.26458332px;stroke-linecap:butt;stroke-linejoin:miter;stroke-opacity:1"
       d="m 117.03457,126.75415 c 2.9835,1.72252 5.96692,3.445 8.95025,5.16743"
       id="path4627"
       inkscape:connector-curvature="0"
       inkscape:path-effect="#path-effect4629"
       inkscape:original-d="m 117.03457,126.75415 c 2.98368,1.72221 5.9671,3.44469 8.95025,5.16743"
       sodipodi:nodetypes="cc" />
    <path
       style="fill:none;stroke:#000000;stroke-width:1;stroke-linecap:butt;stroke-linejoin:miter;stroke-miterlimit:4;stroke-dasharray:none;stroke-opacity:1"
       d="m 102.19901,122.21844 c 0,-11.82666 0,-23.560714 0,-35.340778"
       id="path4631"
       inkscape:connector-curvature="0"
       inkscape:path-effect="#path-effect4633"
       inkscape:original-d="m 102.19901,122.21844 c 2.6e-4,-11.82666 2.6e-4,-23.560714 0,-35.340778" />
    <path
       style="fill:none;stroke:#000000;stroke-width:1;stroke-linecap:butt;stroke-linejoin:miter;stroke-miterlimit:4;stroke-dasharray:none;stroke-opacity:1"
       d="m 102.38799,86.688674 c 9.64708,2.584925 19.29398,5.169803 24.11733,6.462217 4.82336,1.292414 -24.57408,9.169429 -24.57408,9.169429"
       id="path4635"
       inkscape:connector-curvature="0"
       inkscape:path-effect="#path-effect4637"
       inkscape:original-d="m 102.38799,86.688674 c 9.64716,2.584612 19.29406,5.169487 28.94069,7.754631 l -29.39744,7.877015" />
    <path
       style="opacity:1;fill:#483e37;stroke-width:3.81789947;stroke-linejoin:round;stroke-miterlimit:4;stroke-dasharray:none;paint-order:normal"
       d="m 336.44911,686.32826 -45.27788,-25.54004 -0.26915,-26.94098 c -0.22464,-22.4862 -0.0421,-26.80586 1.1038,-26.12387 0.75513,0.44941 31.2187,18.07114 67.69683,39.15939 36.47814,21.08826 66.32038,38.58915 66.31611,38.89088 -0.004,0.30172 -1.70892,1.52081 -3.78808,2.70909 -2.07916,1.18827 -12.04306,6.93614 -22.14201,12.77303 L 381.727,711.86829 Z"
       id="path4661"
       inkscape:connector-curvature="0"
       transform="scale(0.26458333)" />
    <path
       style="opacity:1;fill:#00ffff;stroke-width:3.81789947;stroke-linejoin:round;stroke-miterlimit:4;stroke-dasharray:none;paint-order:normal"
       d="m 336.62809,685.90714 -44.44671,-25.115 -0.26949,-26.47124 -0.26949,-26.47123 3.29995,2.018 c 1.81497,1.1099 21.93726,12.79945 44.7162,25.97678 73.61873,42.58752 85.84174,49.82722 85.20079,50.46454 -0.73589,0.73173 -42.75017,24.76068 -43.25328,24.73757 -0.29219,-0.0134 -20.53227,-11.32616 -44.97797,-25.13942 z"
       id="path4679"
       inkscape:connector-curvature="0"
       transform="scale(0.26458333)" />
    <path
       style="opacity:1;fill:#00ffff;stroke-width:3.81789947;stroke-linejoin:round;stroke-miterlimit:4;stroke-dasharray:none;paint-order:normal"
       d="m 440.42879,628.96147 -33.58006,-19.41084 -0.008,-24.0753 c -0.004,-13.85104 0.37868,-23.93231 0.90187,-23.73859 0.50016,0.1852 15.94685,9.20081 34.32599,20.03469 l 33.4166,19.69798 0.0192,23.48605 c 0.0106,12.91732 -0.32173,23.47048 -0.73842,23.45145 -0.41668,-0.019 -15.86863,-8.76948 -34.33766,-19.44544 z"
       id="path4681"
       inkscape:connector-curvature="0"
       transform="scale(0.26458333)" />
    <path
       style="opacity:1;fill:#00ffff;stroke-width:3.81789947;stroke-linejoin:round;stroke-miterlimit:4;stroke-dasharray:none;paint-order:normal"
       d="m 325.76895,568.92067 -35.1028,-19.71842 v -26.24989 c 0,-21.35286 0.24924,-26.15425 1.33598,-25.73723 0.73478,0.28197 18.63313,10.47101 39.7741,22.64233 l 38.43812,22.12967 -3.91368,4.19567 -3.91369,4.19567 v 19.23202 c 0,10.57761 -0.34092,19.18625 -0.75761,19.13031 -0.41669,-0.0559 -16.55388,-8.97499 -35.86042,-19.82013 z"
       id="path4683"
       inkscape:connector-curvature="0"
       transform="scale(0.26458333)" />
    <path
       style="opacity:1;fill:#00ffff;stroke-width:3.81789947;stroke-linejoin:round;stroke-miterlimit:4;stroke-dasharray:none;paint-order:normal"
       d="m 421.98598,517.15584 -52.02285,-30.13456 -0.28562,-11.21377 -0.28563,-11.21377 h 16.19553 16.19552 v 17.74982 c 0,14.03631 0.30191,18.05174 1.44308,19.1929 1.15235,1.15235 5.42596,1.44308 21.2132,1.44308 h 19.77013 v -10.69078 c 0,-5.87993 0.38975,-10.53926 0.86611,-10.35407 0.47635,0.1852 7.52217,4.17941 15.65736,8.87602 l 14.79126,8.53931 v 24.03811 c 0,13.22097 -0.34093,24.00755 -0.75762,23.9702 -0.41668,-0.0374 -24.16789,-13.62848 -52.78047,-30.20249 z"
       id="path4685"
       inkscape:connector-curvature="0"
       transform="scale(0.26458333)" />
    <path
       style="opacity:1;fill:#00ffff;stroke-width:3.81789947;stroke-linejoin:round;stroke-miterlimit:4;stroke-dasharray:none;paint-order:normal"
       d="M 388.65095,356.58884 V 330.4063 l 3.78807,1.06605 c 2.08344,0.58633 21.97082,5.96078 44.19418,11.94323 l 40.4061,10.87718 -6.06092,2.74142 c -11.21057,5.07066 -76.38403,25.7372 -81.16416,25.7372 -0.84767,0 -1.16327,-7.10346 -1.16327,-26.18254 z"
       id="path4687"
       inkscape:connector-curvature="0"
       transform="scale(0.26458333)" />
    <path
       style="opacity:1;fill:#280b0b;stroke-width:3.81789947;stroke-linejoin:round;stroke-miterlimit:4;stroke-dasharray:none;paint-order:normal"
       d="M 359.60906,644.63702 290.66615,604.74666 V 578.1164 551.48614 l 5.85194,3.27336 c 3.21856,1.80034 19.34664,10.77373 35.84017,19.94087 l 29.98823,16.66751 0.0524,8.5863 c 0.0787,12.89618 -1.16345,12.26175 23.6138,12.06112 l 20.79881,-0.16842 34.10375,19.67188 34.10376,19.67188 v 3.40668 c 0,3.34533 -0.30923,3.58571 -17.17259,13.34848 -9.44493,5.46799 -19.90001,11.43575 -23.23351,13.26169 l -6.06091,3.31988 -68.94291,-39.89035 z"
       id="path4689"
       inkscape:connector-curvature="0"
       transform="scale(0.26458333)" />
    <path
       style="opacity:1;fill:#280b0b;stroke-width:3.81789947;stroke-linejoin:round;stroke-miterlimit:4;stroke-dasharray:none;paint-order:normal"
       d="m 441.17888,578.95795 -33.84011,-19.94731 -0.30655,-4.74939 c -0.28029,-4.34248 -0.79121,-5.18135 -5.96344,-9.79129 -9.87913,-8.80513 -17.35683,-10.60552 -25.22967,-6.07449 l -3.93856,2.26675 -40.36466,-23.25965 -40.36466,-23.25965 -0.27954,-14.77459 -0.27955,-14.77459 h 17.68239 17.68238 l 0.27483,18.94036 0.27483,18.94036 h 21.2132 21.21321 l 0.30304,-6.40215 c 0.24157,-5.10359 0.60041,-6.28803 1.76914,-5.83955 2.42132,0.92915 101.86929,58.39298 103.25497,59.66362 0.98119,0.89973 1.21788,6.77899 1.01015,25.09196 l -0.27129,23.91691 z"
       id="path4691"
       inkscape:connector-curvature="0"
       transform="scale(0.26458333)" />
    <path
       style="opacity:1;fill:#280b0b;stroke-width:3.81789947;stroke-linejoin:round;stroke-miterlimit:4;stroke-dasharray:none;paint-order:normal"
       d="m 459.65175,488.04104 -15.36725,-8.80009 -0.0376,-8.83883 -0.0376,-8.83884 h 15.65736 15.65737 v 17.67767 c 0,9.72272 -0.11364,17.66024 -0.25254,17.63893 -0.13889,-0.0213 -7.1678,-3.99879 -15.61978,-8.83884 z"
       id="path4693"
       inkscape:connector-curvature="0"
       transform="scale(0.26458333)" />
    <path
       style="opacity:1;fill:#917c6f;stroke-width:7.63579893;stroke-linejoin:round;stroke-miterlimit:4;stroke-dasharray:none;paint-order:normal"
       d="m 336.56891,684.87773 -42.4264,-23.99475 -0.56696,-25.64626 -0.56695,-25.64627 6.62787,4.00331 c 3.64533,2.20181 32.8352,19.22441 64.86638,37.82798 32.03117,18.60358 57.48702,34.54953 56.56854,35.43546 -3.29356,3.17682 -37.39359,22.13299 -39.71002,22.07476 -1.30133,-0.0327 -21.45793,-10.85712 -44.79246,-24.05423 z"
       id="path4753"
       inkscape:connector-curvature="0"
       transform="scale(0.26458333)" />
    <path
       style="opacity:1;fill:#917c6f;stroke-width:7.63579893;stroke-linejoin:round;stroke-miterlimit:4;stroke-dasharray:none;paint-order:normal"
       d="m 440.10955,627.89196 -31.81981,-18.38199 v -23.06133 -23.06133 l 4.54569,2.38239 c 2.50013,1.31032 17.50089,10.02178 33.33503,19.35881 l 28.78935,16.9764 v 22.12854 c 0,12.17069 -0.68185,22.10872 -1.51523,22.08451 -0.83337,-0.0242 -15.83414,-8.31591 -33.33503,-18.426 z"
       id="path4755"
       inkscape:connector-curvature="0"
       transform="scale(0.26458333)" />
    <path
       style="opacity:1;fill:#917c6f;stroke-width:7.63579893;stroke-linejoin:round;stroke-miterlimit:4;stroke-dasharray:none;paint-order:normal"
       d="m 325.96231,568.05197 -34.85026,-19.40772 v -25.09842 c 0,-20.92195 0.48027,-24.91413 2.88615,-23.9909 4.43543,1.70203 70.60399,39.77769 72.72654,41.84934 1.1418,1.11442 0.5828,3.25073 -1.43365,5.47888 -2.44065,2.69689 -3.45865,8.48135 -3.89185,22.11437 l -0.58667,18.46217 z"
       id="path4757"
       inkscape:connector-curvature="0"
       transform="scale(0.26458333)" />
    <path
       style="opacity:1;fill:#917c6f;stroke-width:7.63579893;stroke-linejoin:round;stroke-miterlimit:4;stroke-dasharray:none;paint-order:normal"
       d="m 420.91665,515.7268 -51.0127,-29.40952 V 475.4259 464.53452 h 15.15229 15.15228 l 0.0222,11.61676 c 0.0123,6.38921 0.58575,15.02602 1.27449,19.19289 l 1.25225,7.57615 h 20.84328 20.84328 l 0.61066,-9.98892 0.61066,-9.98891 14.64721,8.38344 14.64721,8.38345 v 22.81867 c 0,12.55027 -0.68185,22.77134 -1.51523,22.71348 -0.83337,-0.0579 -24.47094,-13.33949 -52.52793,-29.51473 z"
       id="path4759"
       inkscape:connector-curvature="0"
       transform="scale(0.26458333)" />
    <path
       style="opacity:1;fill:#917c6f;stroke-width:7.63579893;stroke-linejoin:round;stroke-miterlimit:4;stroke-dasharray:none;paint-order:normal"
       d="m 384.58953,494.13036 -14.60884,-8.38263 -0.0384,-10.60661 -0.0384,-10.6066 h 15.15229 15.15228 v 15.99721 c 0,8.79846 0.55184,17.43526 1.22631,19.1929 1.74725,4.55326 -0.40818,3.83745 -16.8453,-5.59427 z"
       id="path4761"
       inkscape:connector-curvature="0"
       transform="scale(0.26458333)" />
    <path
       style="opacity:1;fill:#917c6f;stroke-width:7.63579893;stroke-linejoin:round;stroke-miterlimit:4;stroke-dasharray:none;paint-order:normal"
       d=""
       id="path4763"
       inkscape:connector-curvature="0"
       transform="scale(0.26458333)" />
    <path
       style="opacity:1;fill:#917c6f;stroke-width:1.90894973;stroke-linejoin:round;stroke-miterlimit:4;stroke-dasharray:none;paint-order:normal"
       d=""
       id="path4765"
       inkscape:connector-curvature="0"
       transform="scale(0.26458333)" />
    <path
       style="opacity:1;fill:#917c6f;stroke-width:1.90894973;stroke-linejoin:round;stroke-miterlimit:4;stroke-dasharray:none;paint-order:normal"
       d=""
       id="path4767"
       inkscape:connector-curvature="0"
       transform="scale(0.26458333)" />
    <path
       style="opacity:1;fill:#917c6f;stroke-width:1.90894973;stroke-linejoin:round;stroke-miterlimit:4;stroke-dasharray:none;paint-order:normal"
       d="m 471.07683,545.18908 c -3.23592,-1.81452 -3.17236,-2.41229 0.0881,-0.82825 1.27756,0.62068 2.46337,0.98798 2.63513,0.81622 0.17177,-0.17177 0.49167,-1.97609 0.7109,-4.0096 l 0.39861,-3.69731 -0.0685,4.50493 c -0.0386,2.53802 -0.28899,4.55187 -0.57355,4.61244 -0.27779,0.0591 -1.7136,-0.57016 -3.19068,-1.39843 z"
       id="path4769"
       inkscape:connector-curvature="0"
       transform="scale(0.26458333)" />
    <path
       style="opacity:1;fill:#917c6f;stroke-width:1.90894973;stroke-linejoin:round;stroke-miterlimit:4;stroke-dasharray:none;paint-order:normal"
       d="m 474.01497,542.04564 c 0,-0.67809 0.22729,-1.37335 0.50508,-1.54504 0.29467,-0.18212 0.50508,0.33147 0.50508,1.23288 0,0.84977 -0.22729,1.54504 -0.50508,1.54504 -0.27779,0 -0.50508,-0.5548 -0.50508,-1.23288 z"
       id="path4771"
       inkscape:connector-curvature="0"
       transform="scale(0.26458333)" />
    <path
       style="opacity:1;fill:#917c6f;stroke-width:1.90894973;stroke-linejoin:round;stroke-miterlimit:4;stroke-dasharray:none;paint-order:normal"
       d="m 466.26791,542.46116 c -0.78849,-0.42731 -1.321,-0.88954 -1.18336,-1.02718 0.26945,-0.26945 3.37459,1.20737 3.37459,1.60497 0,0.41308 -0.70666,0.22674 -2.19123,-0.57779 z"
       id="path4773"
       inkscape:connector-curvature="0"
       transform="scale(0.26458333)" />
    <path
       style="opacity:1;fill:#917c6f;stroke-width:1.90894973;stroke-linejoin:round;stroke-miterlimit:4;stroke-dasharray:none;paint-order:normal"
       d=""
       id="path4775"
       inkscape:connector-curvature="0"
       transform="scale(0.26458333)" />
    <path
       style="opacity:1;fill:#917c6f;stroke-width:1.90894973;stroke-linejoin:round;stroke-miterlimit:4;stroke-dasharray:none;paint-order:normal"
       d="M 461.12985,538.31346 C 446.26822,530.019 438.6233,525.65411 400.90518,503.92807 l -30.93592,-17.81943 v -10.81101 -10.81101 h 15.0986 15.09859 l 0.23183,13.51079 c 0.16607,9.6777 0.49262,15.12284 1.15103,19.1929 l 0.91919,5.68211 h 21.05657 21.05656 l 0.31246,-4.16688 c 0.17185,-2.29178 0.46059,-6.68987 0.64164,-9.77353 l 0.3292,-5.60664 14.33494,8.13202 14.33493,8.13203 -0.13364,20.78655 c -0.0735,11.43261 0.0368,20.68103 0.24516,20.55206 0.20834,-0.12898 0.37881,0.23347 0.37881,0.80545 0,0.57198 -0.21197,1.03996 -0.47104,1.03996 -0.25908,0 -0.61532,0.45457 -0.79165,1.01016 -0.17634,0.55558 -0.47832,1.01015 -0.67106,1.01015 -0.19275,0 -5.57543,-2.91613 -11.96153,-6.48029 z"
       id="path4777"
       inkscape:connector-curvature="0"
       transform="scale(0.26458333)" />
    <path
       style="opacity:1;fill:#917c6f;stroke-width:1.90894973;stroke-linejoin:round;stroke-miterlimit:4;stroke-dasharray:none;paint-order:normal"
       d="m 462.11318,538.91449 c -10.87317,-6.04555 -37.56845,-21.30499 -72.1934,-41.26689 l -19.69798,-11.35623 -0.13612,-10.90238 -0.13612,-10.90237 h 15.16214 15.16214 l 0.013,10.2278 c 0.0129,10.16231 0.44366,16.74737 1.5857,24.24366 l 0.59635,3.91434 h 21.07599 21.07599 l 0.35834,-5.93465 c 0.19708,-3.26405 0.5036,-7.66622 0.68117,-9.7826 l 0.32283,-3.84795 14.24602,8.1411 14.24602,8.1411 0.14866,21.46574 c 0.11528,16.64686 0.007,21.61558 -0.4827,22.13317 -0.34724,0.36708 -0.63134,0.87847 -0.63134,1.13642 0,0.25795 -0.18509,0.469 -0.41132,0.469 -0.22622,0 -5.16966,-2.64567 -10.9854,-5.87926 z"
       id="path4779"
       inkscape:connector-curvature="0"
       transform="scale(0.26458333)" />
    <path
       style="opacity:1;fill:#917c6f;stroke-width:1.90894973;stroke-linejoin:round;stroke-miterlimit:4;stroke-dasharray:none;paint-order:normal"
       d="m 460.59554,538.06925 c -10.99417,-6.11655 -43.33806,-24.6093 -77.24176,-44.16328 l -13.13198,-7.57389 -0.13612,-10.92273 -0.13612,-10.92273 h 15.09401 15.09402 l 0.27431,13.00572 c 0.17153,8.13281 0.6019,15.32388 1.14864,19.19289 l 0.87433,6.18719 h 21.09198 21.09198 l 0.36873,-6.43972 c 0.20281,-3.54185 0.5098,-7.95393 0.68221,-9.80462 l 0.31347,-3.36488 14.24803,8.12866 14.24803,8.12866 0.14665,21.50019 c 0.11371,16.67218 0.005,21.65007 -0.48471,22.16762 -0.34724,0.36708 -0.63134,0.87847 -0.63134,1.13642 0,0.25795 -0.18618,0.469 -0.41372,0.469 -0.22755,0 -5.85283,-3.02602 -12.50064,-6.7245 z"
       id="path4781"
       inkscape:connector-curvature="0"
       transform="scale(0.26458333)" />
    <path
       style="opacity:1;fill:#917c6f;stroke-width:1.90894973;stroke-linejoin:round;stroke-miterlimit:4;stroke-dasharray:none;paint-order:normal"
       d="m 330.32078,570.2781 c -16.11194,-8.99916 -31.45363,-17.57284 -34.09265,-19.05262 l -4.79823,-2.69051 0.0446,-22.19993 c 0.0467,-23.2597 0.30815,-26.49308 2.14233,-26.49308 1.40543,0 39.6383,21.61623 62.71541,35.45826 11.72399,7.03223 11.78157,7.10183 9.1233,11.02489 -3.16767,4.67483 -3.89206,9.25614 -4.39596,27.80191 -0.23329,8.58592 -0.51727,12.57616 -0.89319,12.55062 -0.30313,-0.0206 -13.73364,-7.40038 -29.84557,-16.39954 z"
       id="path4783"
       inkscape:connector-curvature="0"
       transform="scale(0.26458333)" />
    <path
       style="opacity:1;fill:#917c6f;stroke-width:1.90894973;stroke-linejoin:round;stroke-miterlimit:4;stroke-dasharray:none;paint-order:normal"
       d="m 291.23596,501.60973 c -0.0246,-1.11117 0.0902,-2.52384 0.25518,-3.13927 l 0.29998,-1.11896 1.96597,1.00296 c 2.33562,1.19154 2.50067,1.56919 0.51199,1.17145 -1.60397,-0.32079 -2.02944,0.0932 -2.61554,2.54481 -0.36304,1.51858 -0.37395,1.50653 -0.41758,-0.46099 z"
       id="path4785"
       inkscape:connector-curvature="0"
       transform="scale(0.26458333)" />
    <path
       style="opacity:1;fill:#6c5d53;stroke-width:5.39932537;stroke-linejoin:round;stroke-miterlimit:4;stroke-dasharray:none;paint-order:normal"
       d="m 441.45971,627.88526 c -16.05656,-9.11059 -30.0147,-17.34737 -31.0181,-18.30396 -1.3599,-1.29645 -1.7236,-7.27181 -1.42857,-23.47039 l 0.39579,-21.73114 32.48851,18.96367 32.48851,18.96367 0.0114,18.81173 c 0.0111,18.1642 -0.59417,23.33113 -2.73327,23.33113 -0.55581,0 -14.14775,-7.45412 -30.2043,-16.56471 z"
       id="path4797"
       inkscape:connector-curvature="0"
       transform="scale(0.26458333)" />
    <path
       style="opacity:1;fill:#6c5d53;stroke-width:5.39932537;stroke-linejoin:round;stroke-miterlimit:4;stroke-dasharray:none;paint-order:normal"
       d="m 324.76597,567.08541 -33.21428,-18.59784 0.0219,-22.37594 c 0.012,-12.30677 0.58556,-23.266 1.27451,-24.35383 1.30391,-2.05886 15.51388,5.39083 54.4179,28.529 22.59398,13.43777 20.71296,11.74701 17.87965,16.07118 -2.1565,3.29123 -4.79783,22.20091 -4.97154,35.59199 -0.028,2.16071 -0.53311,3.88463 -1.12239,3.83093 -0.58929,-0.0537 -16.01786,-8.46667 -34.28572,-18.69549 z"
       id="path4799"
       inkscape:connector-curvature="0"
       transform="scale(0.26458333)" />
    <path
       style="opacity:1;fill:#6c5d53;stroke-width:5.39932537;stroke-linejoin:round;stroke-miterlimit:4;stroke-dasharray:none;paint-order:normal"
       d="m 454.93846,534.80711 c -9.50476,-5.30357 -32.46393,-18.32143 -51.02037,-28.92857 l -33.73899,-19.28572 -0.028,-11.07143 -0.028,-11.07142 h 14.78191 14.78191 l 0.84455,16.79714 c 0.4645,9.23843 1.27428,17.917 1.79951,19.28571 0.846,2.20467 3.27811,2.48857 21.31838,2.48857 h 20.36343 l 1.26944,-9.83047 1.26945,-9.83047 13.89902,8.04476 13.89901,8.04476 0.0296,22.5 c 0.0163,12.375 -0.46297,22.5 -1.06495,22.5 -0.60197,0 -8.87111,-4.33929 -18.37587,-9.64286 z"
       id="path4801"
       inkscape:connector-curvature="0"
       transform="scale(0.26458333)" />
    <path
       style="opacity:1;fill:#6c5d53;stroke-width:5.39932537;stroke-linejoin:round;stroke-miterlimit:4;stroke-dasharray:none;paint-order:normal"
       d="m 372.18547,703.84334 c -49.17598,-27.21759 -76.72798,-43.03483 -77.16076,-44.29699 -0.28759,-0.83873 -0.70453,-12.15884 -0.92653,-25.1558 l -0.40364,-23.63085 47.85715,27.99493 c 54.77805,32.04344 77.46015,46.06234 77.47547,47.88452 0.0109,1.29432 -26.0198,16.64549 -33.98455,20.04184 -4.0251,1.7164 -5.02957,1.49471 -12.85714,-2.83765 z"
       id="path4803"
       inkscape:connector-curvature="0"
       transform="scale(0.26458333)" />
    <path
       style="opacity:1;fill:#6c5d53;stroke-width:5.39932537;stroke-linejoin:round;stroke-miterlimit:4;stroke-dasharray:none;paint-order:normal"
       d="m 457.10047,535.50135 c -7.55531,-4.11397 -30.2029,-16.80138 -50.32797,-28.19424 l -36.59104,-20.71429 -0.0292,-11.07143 -0.0292,-11.07142 h 15 15 l 0.12516,11.78571 c 0.0688,6.48214 0.55098,15 1.07143,18.92857 l 0.94628,7.14286 h 20.95513 20.95514 l 0.83058,-4.10714 c 0.45681,-2.25893 0.83057,-5.91742 0.83057,-8.12998 0,-2.21256 0.51625,-4.34189 1.14721,-4.73185 0.63097,-0.38996 7.05783,2.62567 14.28191,6.7014 l 13.13469,7.41043 -0.0157,18.57142 c -0.0152,17.98014 -0.76031,25.02167 -2.6433,24.97996 -0.49765,-0.011 -7.08643,-3.38602 -14.64174,-7.5 z"
       id="path4805"
       inkscape:connector-curvature="0"
       transform="scale(0.26458333)" />
    <path
       style="opacity:1;fill:#6c5d53;stroke-width:5.39932537;stroke-linejoin:round;stroke-miterlimit:4;stroke-dasharray:none;paint-order:normal"
       d="m 401.31804,485.99593 c -0.29356,-3.07829 -0.13417,-9.34615 0.3542,-13.92857 0.78291,-7.34605 0.9128,-6.68394 1.09799,5.59689 0.21489,14.25084 -0.49778,18.33964 -1.45219,8.33168 z"
       id="path4807"
       inkscape:connector-curvature="0"
       transform="scale(0.26458333)" />
  </g>
</svg>
